<svg xmlns="http://www.w3.org/2000/svg">
    <!-- https://github.com/danopz/icons -->
    <symbol id="i-facebook" viewBox="0 0 32 32">
        <path stroke="none" fill="currentColor" d="M3,4c0-1 0-1 1-1H28c1,0 1,0 1,1V28c0,1 0,1 -1,1h-7v-10h3l1-4h-4c0-4 0-4 4-4v-4c-8,0 -8,0 -8,8h-4v4h4v10h-13c-1,0 -1,0 -1-1Z" />
    </symbol>

    <symbol id="i-instagram" viewBox="0 0 32 32" stroke-width="2" stroke="currentColor" fill="none">
        <rect x="3" y="3" rx="6" ry="6" width="26" height="26" />
        <circle cx="16" cy="16" r="6" />
        <circle cx="24" cy="8.5" r="1" />
    </symbol>

    <symbol id="i-youtube" viewBox="0 0 32 32">
        <path stroke="none" fill="currentColor" d="M16,5c12,0 13,1 13,11 0,10 -1,11 -13,11 -12,0 -13-1 -13-11 0-10 1-11 13-11ZM12,11l0,10 10-5ZZ" />
    </symbol>

    <!-- https://github.com/danklammer/bytesize-icons -->
    <symbol id="i-user" viewBox="0 0 32 32" fill="none" stroke="currentcolor" stroke-linecap="round" stroke-linejoin="round" stroke-width="2">
        <path d="M22 11 C22 16 19 20 16 20 13 20 10 16 10 11 10 6 12 3 16 3 20 3 22 6 22 11 Z M4 30 L28 30 C28 21 22 20 16 20 10 20 4 21 4 30 Z" />
    </symbol>

    <symbol id="i-msg" viewBox="0 0 32 32" fill="none" stroke="currentcolor" stroke-linecap="round" stroke-linejoin="round" stroke-width="2">
        <path d="M2 4 L30 4 30 22 16 22 8 29 8 22 2 22 Z" />
    </symbol>

    <symbol id="i-video" viewBox="0 0 32 32" fill="none" stroke="currentcolor" stroke-linecap="round" stroke-linejoin="round" stroke-width="2">
        <path d="M22 13 L30 8 30 24 22 19 Z M2 8 L2 24 22 24 22 8 Z" />
    </symbol>

    <symbol id="i-external" viewBox="0 0 32 32" fill="none" stroke="currentcolor" stroke-linecap="round" stroke-linejoin="round" stroke-width="2">
        <path d="M14 9 L3 9 3 29 23 29 23 18 M18 4 L28 4 28 14 M28 4 L14 18" />
    </symbol>
</svg>
